<?xml version="1.0" encoding="utf-8"?>
<!-- Generator: Adobe Illustrator 16.0.0, SVG Export Plug-In . SVG Version: 6.00 Build 0)  -->
<!DOCTYPE svg PUBLIC "-//W3C//DTD SVG 1.1//EN" "http://www.w3.org/Graphics/SVG/1.1/DTD/svg11.dtd">
<svg version="1.1" id="Layer_1" xmlns="http://www.w3.org/2000/svg" xmlns:xlink="http://www.w3.org/1999/xlink" x="0px" y="0px"
	 width="34px" height="34px" viewBox="0 0 34 34" enable-background="new 0 0 34 34" xml:space="preserve">
<path fill="#505A5F" d="M17,0C7.6,0,0,7.6,0,17c0,9.4,7.6,17,17,17s17-7.6,17-17C34,7.6,26.4,0,17,0z M25,13.7c0,0.2,0,0.4,0,0.5
	C25,19.7,20.9,26,13.3,26C11,26,8.8,25.3,7,24.1c0.3,0,0.6,0.1,1,0.1c1.9,0,3.7-0.7,5.1-1.8c-1.8,0-3.3-1.2-3.8-2.9
	c0.2,0,0.5,0.1,0.8,0.1c0.4,0,0.7,0,1.1-0.1c-1.9-0.4-3.3-2-3.3-4v-0.1c0.6,0.3,1.2,0.5,1.9,0.5c-1.1-0.7-1.8-2-1.8-3.4
	c0-0.8,0.2-1.5,0.6-2.1c2,2.5,5.1,4.1,8.5,4.3c-0.1-0.3-0.1-0.6-0.1-0.9c0-2.3,1.8-4.1,4.1-4.1c1.2,0,2.3,0.5,3,1.3
	c0.9-0.2,1.8-0.5,2.6-1c-0.3,1-1,1.8-1.8,2.3c0.8-0.1,1.6-0.3,2.4-0.6C26.5,12.4,25.8,13.2,25,13.7z"/>
</svg>
