<?xml version="1.0" encoding="utf-8"?>
<!-- Generator: Adobe Illustrator 16.0.0, SVG Export Plug-In . SVG Version: 6.00 Build 0)  -->
<!DOCTYPE svg PUBLIC "-//W3C//DTD SVG 1.1//EN" "http://www.w3.org/Graphics/SVG/1.1/DTD/svg11.dtd">
<svg version="1.1" id="Layer_1" xmlns="http://www.w3.org/2000/svg" xmlns:xlink="http://www.w3.org/1999/xlink" x="0px" y="0px"
	 width="34px" height="34px" viewBox="0 0 34 34" enable-background="new 0 0 34 34" xml:space="preserve">
<path fill="#4F5A5F" d="M17,0C7.6,0,0,7.6,0,17c0,9.4,7.6,17,17,17c9.4,0,17-7.6,17-17C34,7.6,26.4,0,17,0z M22,20.2
	c-2.3,3-4.3,4.5-5.9,4.5c-1,0-1.8-0.9-2.5-2.7c-0.5-1.7-0.9-3.4-1.4-5c-0.5-1.8-1.1-2.7-1.6-2.7c-0.1,0-0.6,0.3-1.3,0.8l-0.8-1
	c0.8-0.7,1.7-1.5,2.5-2.2c1.1-1,2-1.5,2.5-1.5c1.3-0.1,2.1,0.8,2.4,2.7c0.3,2.1,0.6,3.4,0.7,3.9c0.4,1.7,0.8,2.6,1.3,2.6
	c0.4,0,0.9-0.6,1.6-1.7c0.7-1.1,1.1-2,1.1-2.6c0.1-1-0.3-1.4-1.1-1.4c-0.4,0-0.8,0.1-1.3,0.3c0.8-2.7,2.4-4,4.8-4
	c1.8,0,2.6,1.2,2.5,3.4C25.4,15.1,24.3,17.4,22,20.2z"/>
</svg>
